<svg width="180" height="23" viewBox="0 0 180 23" fill="none" xmlns="http://www.w3.org/2000/svg">
<!-- mintlify wordmark paths -->
<path d="M91.4402 21.4758H88.1331L90.4636 16.2156L85.8025 5.73975H89.1319L91.8475 12.3068C91.9428 12.5363 92.2682 12.5359 92.3624 12.3061L95.0575 5.73975H98.4091L91.4402 21.4758Z" fill="#09090B"/>
<path d="M81.3934 16.8371V8.4031H79.1517V5.73971H81.3934V4.29706C81.3934 2.98017 81.7924 1.94441 82.5917 1.18979C83.391 0.435172 84.4044 0.0578613 85.6326 0.0578613C86.3869 0.0578613 87.0305 0.139242 87.5636 0.302003V2.98757C87.2084 2.8544 86.7941 2.78782 86.3202 2.78782C85.6549 2.78782 85.1739 2.93578 84.8778 3.23171C84.5817 3.51284 84.4337 3.99373 84.4337 4.67437V5.73971H87.5636V8.4031H84.4337V16.8371H81.3934Z" fill="#09090B"/>
<path d="M76.4325 3.91974C75.9147 3.91974 75.4635 3.73479 75.0785 3.36488C74.6941 2.98017 74.5016 2.52148 74.5016 1.9888C74.5016 1.45613 74.6941 1.00484 75.0785 0.634923C75.4635 0.250216 75.9147 0.0578613 76.4325 0.0578613C76.9802 0.0578613 77.4384 0.250216 77.8087 0.634923C78.1932 1.00484 78.3857 1.45613 78.3857 1.9888C78.3857 2.52148 78.1932 2.98017 77.8087 3.36488C77.4384 3.73479 76.9802 3.91974 76.4325 3.91974ZM74.9235 16.8371V5.73971H77.9638V16.8371H74.9235Z" fill="#09090B"/>
<path d="M69.6281 16.837V0.190918H72.669V16.837H69.6281Z" fill="#09090B"/>
<path d="M66.1938 16.9702C64.951 16.9702 63.9299 16.6298 63.1306 15.9492C62.3466 15.2537 61.9545 14.255 61.9545 12.9529V8.40297H59.7129V5.73961H61.9545V2.65454H64.9949V5.73961H68.1247V8.40297H64.9949V12.3537C64.9949 13.0343 65.1429 13.5226 65.439 13.8185C65.735 14.0996 66.216 14.2402 66.8819 14.2402C67.3553 14.2402 67.7695 14.1736 68.1247 14.0405V16.726C67.5917 16.8888 66.948 16.9702 66.1938 16.9702Z" fill="#09090B"/>
<path d="M48.3319 16.8369V5.73951H51.3726V6.55065C51.3726 6.68781 51.5593 6.74849 51.6501 6.64568C52.3279 5.87881 53.2934 5.49536 54.5464 5.49536C55.8781 5.49536 56.9213 5.93925 57.6759 6.82707C58.4453 7.70003 58.8299 8.86894 58.8299 10.3338V16.8369H55.7893V10.8443C55.7893 10.0305 55.6192 9.40164 55.2789 8.95776C54.9386 8.49908 54.4576 8.26971 53.8362 8.26971C53.0964 8.26971 52.4971 8.53606 52.0384 9.0687C51.5945 9.6014 51.3726 10.3856 51.3726 11.4213V16.8369H48.3319Z" fill="#09090B"/>
<path d="M44.5472 3.91974C44.0293 3.91974 43.578 3.73479 43.1933 3.36488C42.8086 2.98017 42.6162 2.52148 42.6162 1.9888C42.6162 1.45613 42.8086 1.00484 43.1933 0.634923C43.578 0.250216 44.0293 0.0578613 44.5472 0.0578613C45.0946 0.0578613 45.5533 0.250216 45.9232 0.634923C46.308 1.00484 46.5003 1.45613 46.5003 1.9888C46.5003 2.52148 46.308 2.98017 45.9232 3.36488C45.5533 3.73479 45.0946 3.91974 44.5472 3.91974ZM43.0379 16.8371V5.73971H46.0786V16.8371H43.0379Z" fill="#09090B"/>
<path d="M37.8749 16.8369V10.9109C37.8749 9.15009 37.2978 8.26971 36.1437 8.26971C35.4778 8.26971 34.9452 8.52126 34.5457 9.02435C34.1609 9.52739 33.9538 10.2747 33.9242 11.266V16.8369H30.8836V10.9109C30.8836 9.15009 30.3065 8.26971 29.1524 8.26971C28.4717 8.26971 27.9317 8.53606 27.5321 9.0687C27.1327 9.6014 26.9329 10.3856 26.9329 11.4213V16.8369H23.8922V5.73951H26.9329V6.55861C26.9329 6.69506 27.1163 6.75516 27.206 6.65229C27.8778 5.88103 28.7707 5.49536 29.8848 5.49536C31.3489 5.49536 32.4517 6.09981 33.193 7.30875C33.2515 7.40413 33.3954 7.4026 33.4536 7.30705C33.7741 6.78026 34.2195 6.36131 34.7898 6.05025C35.4409 5.68032 36.0993 5.49536 36.7652 5.49536C38.082 5.49536 39.103 5.93188 39.828 6.80484C40.5531 7.67785 40.9156 8.87637 40.9156 10.4004V16.8369H37.8749Z" fill="#09090B"/>
<!-- M icon -->
<path d="M19.4027 7.36208V1.35027C19.4027 0.705146 18.8794 0.190918 18.2439 0.190918H12.2349C11.291 0.190918 10.3565 0.377903 9.48742 0.733186C8.61827 1.09782 7.82396 1.62141 7.16042 2.29458L7.11373 2.34133C6.23527 3.22954 5.60912 4.33278 5.29138 5.54823C5.86143 5.39864 6.45019 5.32384 7.03895 5.3145C8.60891 5.29579 10.1509 5.80067 11.4032 6.745C12.534 7.58647 13.3937 8.74579 13.861 10.0828C14.3469 11.4385 14.403 12.9157 14.0386 14.3088C15.2441 13.991 16.3562 13.3645 17.244 12.4856L17.2907 12.4389C17.9543 11.7751 18.4869 10.9803 18.8514 10.1108C19.2159 9.24134 19.3934 8.30636 19.3934 7.36208H19.4027Z" fill="#18E299"/>
<path d="M5.11193 7.26034C5.12124 5.4161 5.85673 3.64637 7.1508 2.32373L2.15129 7.32553C2.13267 7.34419 2.11404 7.3535 2.09543 7.3721C0.875804 8.58297 0.140324 10.2037 0.019293 11.9175C-0.0924279 13.5196 0.326517 15.103 1.22029 16.4257C1.30553 16.5519 1.53685 16.5933 1.6672 16.4723L4.73021 13.4171C5.68914 12.4578 5.98709 11.0327 5.53088 9.75657C5.24227 8.96489 5.10262 8.11727 5.11193 7.26034Z" fill="#0C8C5E"/>
<path d="M17.2623 12.4395C16.3034 13.3802 15.1024 14.0322 13.7989 14.321C12.4862 14.6097 11.127 14.5259 9.86083 14.0788C9.86083 14.0788 9.85146 14.0788 9.84216 14.0788C8.56669 13.6224 7.14225 13.9205 6.18334 14.8706L3.12027 17.9256C2.98993 18.0561 3.00855 18.2703 3.16682 18.3727C4.48885 19.2576 6.07158 19.6861 7.67291 19.5743C9.38599 19.4532 10.9966 18.7174 12.2162 17.4972L12.2628 17.4506L17.2623 12.4488V12.4395Z" fill="#0C8C5E"/>
<!-- Starter Kit label -->
<text x="105" y="17" font-family="Inter, ui-sans-serif, system-ui, -apple-system, sans-serif" font-size="15" font-weight="500" fill="#71717A" letter-spacing="-0.01em">Starter Kit</text>
</svg>
